<?xml version="1.0" encoding="UTF-8"?>
<svg id="Layer_1" xmlns="http://www.w3.org/2000/svg" version="1.1" viewBox="0 0 64.28 85.41">
  <!-- Generator: Adobe Illustrator 30.6.0, SVG Export Plug-In . SVG Version: 2.1.4 Build 109)  -->
  <defs>
    <style>
      .st0 {
        fill: #fff;
      }

      .st0, .st1, .st2, .st3 {
        fill-rule: evenodd;
      }

      .st1 {
        fill: #70cddd;
      }

      .st2 {
        fill: #ea999a;
      }

      .st4 {
        fill: none;
        stroke: #010101;
        stroke-linejoin: round;
        stroke-width: 1.5px;
      }

      .st3 {
        fill: #6abd45;
      }

      .st5 {
        fill: #010101;
        opacity: 0;
      }
    </style>
  </defs>
  <path class="st0" d="M48.41,81.12c-.28,2.22-2.29,3.79-4.48,3.51-1.05-.13-2.01-.68-2.66-1.53-.65-.85-.94-1.92-.8-2.99.28-2.22,2.29-3.79,4.48-3.51s3.75,2.3,3.47,4.52Z"/>
  <path class="st4" d="M48.41,81.12c-.28,2.22-2.29,3.79-4.48,3.51-1.05-.13-2.01-.68-2.66-1.53-.65-.85-.94-1.92-.8-2.99.28-2.22,2.29-3.79,4.48-3.51s3.75,2.3,3.47,4.52Z"/>
  <path class="st0" d="M35.04,67.21c-.28,2.22-2.29,3.79-4.48,3.51-1.05-.13-2.01-.68-2.66-1.53-.65-.85-.94-1.92-.8-2.99.28-2.22,2.29-3.79,4.48-3.51,2.19.28,3.75,2.3,3.47,4.52Z"/>
  <path class="st4" d="M35.04,67.21c-.28,2.22-2.29,3.79-4.48,3.51-1.05-.13-2.01-.68-2.66-1.53-.65-.85-.94-1.92-.8-2.99.28-2.22,2.29-3.79,4.48-3.51,2.19.28,3.75,2.3,3.47,4.52Z"/>
  <line class="st5" x1="41.98" y1="77.42" x2="33.51" y2="69.9"/>
  <line class="st4" x1="41.98" y1="77.42" x2="33.51" y2="69.9"/>
  <line class="st5" x1="33.55" y1="51.45" x2="31.89" y2="42.56"/>
  <line class="st4" x1="33.55" y1="51.45" x2="31.89" y2="42.56"/>
  <line class="st5" x1="19.99" y1="46.69" x2="26.27" y2="41.83"/>
  <line class="st4" x1="19.99" y1="46.69" x2="26.27" y2="41.83"/>
  <line class="st5" x1="32.02" y1="54.11" x2="19.24" y2="52.31"/>
  <line class="st4" x1="32.02" y1="54.11" x2="19.24" y2="52.31"/>
  <path class="st0" d="M8.73,67.96c-.28,2.22-2.29,3.79-4.48,3.51-1.05-.13-2.01-.68-2.66-1.53-.65-.85-.94-1.92-.8-2.99.28-2.22,2.29-3.79,4.48-3.51,2.19.28,3.75,2.3,3.47,4.52Z"/>
  <path class="st4" d="M8.73,67.96c-.28,2.22-2.29,3.79-4.48,3.51-1.05-.13-2.01-.68-2.66-1.53-.65-.85-.94-1.92-.8-2.99.28-2.22,2.29-3.79,4.48-3.51,2.19.28,3.75,2.3,3.47,4.52Z"/>
  <path class="st0" d="M63.5,18.59c-.28,2.22-2.29,3.79-4.48,3.51-1.05-.13-2.01-.68-2.66-1.53-.65-.85-.94-1.92-.8-2.99.28-2.22,2.29-3.79,4.48-3.51,2.19.28,3.75,2.3,3.47,4.52Z"/>
  <path class="st4" d="M63.5,18.59c-.28,2.22-2.29,3.79-4.48,3.51-1.05-.13-2.01-.68-2.66-1.53-.65-.85-.94-1.92-.8-2.99.28-2.22,2.29-3.79,4.48-3.51,2.19.28,3.75,2.3,3.47,4.52Z"/>
  <path class="st0" d="M47.95,28.01c-.28,2.22-2.29,3.79-4.48,3.51-1.05-.13-2.01-.68-2.66-1.53-.65-.85-.94-1.92-.8-2.99.28-2.22,2.29-3.79,4.48-3.51,2.19.28,3.75,2.3,3.47,4.52Z"/>
  <path class="st4" d="M47.95,28.01c-.28,2.22-2.29,3.79-4.48,3.51-1.05-.13-2.01-.68-2.66-1.53-.65-.85-.94-1.92-.8-2.99.28-2.22,2.29-3.79,4.48-3.51,2.19.28,3.75,2.3,3.47,4.52Z"/>
  <path class="st0" d="M38.44,13.36c-.28,2.22-2.29,3.79-4.48,3.51-1.05-.13-2.01-.68-2.66-1.53-.65-.85-.94-1.92-.8-2.99.28-2.22,2.29-3.79,4.48-3.51s3.75,2.3,3.47,4.52Z"/>
  <path class="st4" d="M38.44,13.36c-.28,2.22-2.29,3.79-4.48,3.51-1.05-.13-2.01-.68-2.66-1.53-.65-.85-.94-1.92-.8-2.99.28-2.22,2.29-3.79,4.48-3.51s3.75,2.3,3.47,4.52Z"/>
  <path class="st0" d="M53.08,5.3c-.28,2.22-2.29,3.79-4.48,3.51-1.05-.13-2.01-.68-2.66-1.53-.65-.85-.94-1.92-.8-2.99.28-2.22,2.29-3.79,4.48-3.51,2.19.28,3.75,2.3,3.47,4.52Z"/>
  <path class="st4" d="M53.08,5.3c-.28,2.22-2.29,3.79-4.48,3.51-1.05-.13-2.01-.68-2.66-1.53-.65-.85-.94-1.92-.8-2.99.28-2.22,2.29-3.79,4.48-3.51,2.19.28,3.75,2.3,3.47,4.52Z"/>
  <line class="st5" x1="56.35" y1="20.57" x2="47.15" y2="25.03"/>
  <line class="st4" x1="56.35" y1="20.57" x2="47.15" y2="25.03"/>
  <line class="st5" x1="36.92" y1="16.05" x2="41.53" y2="24.32"/>
  <line class="st4" x1="36.92" y1="16.05" x2="41.53" y2="24.32"/>
  <line class="st5" x1="51.56" y1="7.99" x2="57.08" y2="14.89"/>
  <line class="st4" x1="51.56" y1="7.99" x2="57.08" y2="14.89"/>
  <line class="st5" x1="45.94" y1="7.28" x2="37.64" y2="10.37"/>
  <line class="st4" x1="45.94" y1="7.28" x2="37.64" y2="10.37"/>
  <line class="st5" x1="32.63" y1="36.94" x2="40.81" y2="29.99"/>
  <line class="st4" x1="32.63" y1="36.94" x2="40.81" y2="29.99"/>
  <line class="st5" x1="38.44" y1="13.36" x2="55.56" y2="17.59"/>
  <line class="st4" x1="38.44" y1="13.36" x2="55.56" y2="17.59"/>
  <line class="st5" x1="48.6" y1="8.81" x2="44.48" y2="23.49"/>
  <line class="st4" x1="48.6" y1="8.81" x2="44.48" y2="23.49"/>
  <path class="st3" d="M38.44,57.8c-1.75,1.35-4.27,1.02-5.62-.73-.65-.84-.94-1.91-.8-2.96.14-1.05.69-2.01,1.53-2.66,1.75-1.35,4.27-1.02,5.62.73,1.35,1.75,1.02,4.27-.73,5.62Z"/>
  <path class="st4" d="M38.44,57.8c-1.75,1.35-4.27,1.02-5.62-.73-.65-.84-.94-1.91-.8-2.96.14-1.05.69-2.01,1.53-2.66,1.75-1.35,4.27-1.02,5.62.73,1.35,1.75,1.02,4.27-.73,5.62Z"/>
  <path class="st2" d="M31.89,42.57c-1.75,1.35-4.27,1.02-5.62-.73-.65-.84-.94-1.91-.8-2.96.14-1.05.69-2.01,1.53-2.66,1.75-1.35,4.27-1.02,5.62.73,1.35,1.75,1.02,4.27-.73,5.62Z"/>
  <path class="st4" d="M31.89,42.57c-1.75,1.35-4.27,1.02-5.62-.73-.65-.84-.94-1.91-.8-2.96.14-1.05.69-2.01,1.53-2.66,1.75-1.35,4.27-1.02,5.62.73,1.35,1.75,1.02,4.27-.73,5.62Z"/>
  <path class="st1" d="M19.26,52.31c-1.75,1.35-4.27,1.02-5.62-.73-.65-.84-.94-1.91-.8-2.96.14-1.05.69-2.01,1.53-2.66,1.75-1.35,4.27-1.02,5.62.73,1.35,1.75,1.02,4.27-.73,5.62Z"/>
  <path class="st4" d="M19.26,52.31c-1.75,1.35-4.27,1.02-5.62-.73-.65-.84-.94-1.91-.8-2.96.14-1.05.69-2.01,1.53-2.66,1.75-1.35,4.27-1.02,5.62.73,1.35,1.75,1.02,4.27-.73,5.62Z"/>
</svg>