<?xml version="1.0" encoding="UTF-8"?>
<svg id="Layer_1" xmlns="http://www.w3.org/2000/svg" version="1.1" viewBox="0 0 88.58 96.59">
  <!-- Generator: Adobe Illustrator 30.6.0, SVG Export Plug-In . SVG Version: 2.1.4 Build 109)  -->
  <defs>
    <style>
      .st0 {
        stroke: #989898;
      }

      .st0, .st1, .st2, .st3, .st4, .st5, .st6, .st7 {
        fill: none;
        stroke-linejoin: round;
      }

      .st0, .st4 {
        stroke-width: 1.5px;
      }

      .st8 {
        fill: #f0c231;
      }

      .st8, .st9, .st10, .st11, .st12, .st13 {
        fill-rule: evenodd;
      }

      .st1 {
        stroke: #684fa1;
      }

      .st14 {
        fill: #749cd2;
      }

      .st9 {
        fill: #70a7da;
      }

      .st2 {
        stroke-width: 2.25px;
      }

      .st2, .st4 {
        stroke: #010101;
      }

      .st15 {
        fill: #e06666;
      }

      .st3 {
        stroke: #f0c231;
        stroke-width: 3px;
      }

      .st10, .st16 {
        fill: #94c47d;
      }

      .st5 {
        stroke: #3e85c6;
      }

      .st11 {
        fill: #8f7cb9;
      }

      .st12 {
        fill: #b7b7b8;
      }

      .st6 {
        stroke: #6ba94e;
      }

      .st17 {
        fill: #ffda68;
      }

      .st13, .st18 {
        fill: #010101;
        opacity: 0;
      }

      .st7 {
        stroke: #bd912d;
      }

      .st19 {
        fill: #f0efef;
      }
    </style>
  </defs>
  <path class="st13" d="M30.38,19.29c0-8.9,4.67-17.8,9.34-17.79,4.67,0,9.34,8.92,9.34,17.84"/>
  <path class="st3" d="M30.38,19.29c0-8.9,4.67-17.8,9.34-17.79,4.67,0,9.34,8.92,9.34,17.84"/>
  <rect class="st19" x="16.37" y="19.29" width="9.34" height="9.42"/>
  <rect class="st0" x="16.37" y="19.29" width="9.34" height="9.42"/>
  <rect class="st19" x="35.05" y="19.29" width="9.34" height="9.42"/>
  <rect class="st0" x="35.05" y="19.29" width="9.34" height="9.42"/>
  <rect class="st19" x="16.37" y="36.01" width="9.34" height="9.42"/>
  <rect class="st0" x="16.37" y="36.01" width="9.34" height="9.42"/>
  <rect class="st19" x="35.05" y="36.01" width="9.34" height="9.42"/>
  <rect class="st0" x="35.05" y="36.01" width="9.34" height="9.42"/>
  <rect class="st19" x="16.37" y="52.74" width="9.34" height="9.42"/>
  <rect class="st0" x="16.37" y="52.74" width="9.34" height="9.42"/>
  <rect class="st19" x="35.05" y="52.74" width="9.34" height="9.42"/>
  <rect class="st0" x="35.05" y="52.74" width="9.34" height="9.42"/>
  <rect class="st19" x="16.37" y="69.46" width="9.34" height="9.42"/>
  <rect class="st0" x="16.37" y="69.46" width="9.34" height="9.42"/>
  <rect class="st19" x="35.05" y="69.46" width="9.34" height="9.42"/>
  <rect class="st0" x="35.05" y="69.46" width="9.34" height="9.42"/>
  <rect class="st19" x="16.37" y="86.19" width="9.34" height="9.42"/>
  <rect class="st0" x="16.37" y="86.19" width="9.34" height="9.42"/>
  <rect class="st19" x="35.05" y="86.19" width="9.34" height="9.42"/>
  <rect class="st0" x="35.05" y="86.19" width="9.34" height="9.42"/>
  <line class="st18" x1="53.73" y1="40.73" x2="62.29" y2="32.15"/>
  <line class="st2" x1="53.73" y1="40.73" x2="62.29" y2="32.15"/>
  <line class="st18" x1="53.73" y1="57.45" x2="62.26" y2="65.62"/>
  <line class="st2" x1="53.73" y1="57.45" x2="62.26" y2="65.62"/>
  <line class="st18" x1="53.73" y1="24" x2="87.66" y2="56.97"/>
  <line class="st2" x1="53.73" y1="24" x2="87.66" y2="56.97"/>
  <line class="st18" x1="53.73" y1="74.17" x2="78.93" y2="48.49"/>
  <line class="st2" x1="53.73" y1="74.17" x2="78.93" y2="48.49"/>
  <line class="st18" x1="53.73" y1="90.9" x2="87.78" y2="57.03"/>
  <line class="st2" x1="53.73" y1="90.9" x2="87.78" y2="57.03"/>
  <path class="st11" d="M7.46,19.45c-.36-.11-1.07-.7-1.74-.22-.33.24-.87.88-.87.88-.17.69-.49,1.49,0,2.19.3.43,1.3.88,1.3.88l-1.3.44c-.22.07-.46.09-.65.22-1.48.99-.94.5-1.74,1.32.22.22.36.57.65.66.29.08.58-.14.87-.22.79-.23.59-.18,1.3-.66.36.07.78.01,1.09.22.19.13.22.43.22.66,0,.11-.29,1.9-.43,2.19-.23.47-.87,1.32-.87,1.32.07.22,0,.59.22.66,1.17.34,1.29-.2,1.74-.88.07-.49.31-2.3.43-2.85.05-.23.14-.44.22-.66.22.07.49.06.65.22.16.16.22.43.22.66,0,.73-.14,1.46-.22,2.19.07.29.03.64.22.88.37.46.94.12,1.3,0,.07-.29.22-.58.22-.88,0-1.24-.13-1.49-.43-2.41-.07-.42-.7-1.75.43-1.75.46,0,1.3.44,1.3.44.22-.15.58-.19.65-.44.23-.83-.27-1.26-.87-1.53-1.35-.61-1.87-.5-3.48-.66.44-.67,1.28-1.18.65-1.97-.16-.21-.43-.3-.65-.44-.14-.08-.07-.33-.43-.44Z"/>
  <path class="st1" d="M7.46,19.45c-.36-.11-1.07-.7-1.74-.22-.33.24-.87.88-.87.88-.17.69-.49,1.49,0,2.19.3.43,1.3.88,1.3.88l-1.3.44c-.22.07-.46.09-.65.22-1.48.99-.94.5-1.74,1.32.22.22.36.57.65.66.29.08.58-.14.87-.22.79-.23.59-.18,1.3-.66.36.07.78.01,1.09.22.19.13.22.43.22.66,0,.11-.29,1.9-.43,2.19-.23.47-.87,1.32-.87,1.32.07.22,0,.59.22.66,1.17.34,1.29-.2,1.74-.88.07-.49.31-2.3.43-2.85.05-.23.14-.44.22-.66.22.07.49.06.65.22.16.16.22.43.22.66,0,.73-.14,1.46-.22,2.19.07.29.03.64.22.88.37.46.94.12,1.3,0,.07-.29.22-.58.22-.88,0-1.24-.13-1.49-.43-2.41-.07-.42-.7-1.75.43-1.75.46,0,1.3.44,1.3.44.22-.15.58-.19.65-.44.23-.83-.27-1.26-.87-1.53-1.35-.61-1.87-.5-3.48-.66.44-.67,1.28-1.18.65-1.97-.16-.21-.43-.3-.65-.44-.14-.08-.07-.33-.43-.44Z"/>
  <path class="st10" d="M4.34,55.73c-.62-.17-.6-.7-.74-1.12-.08-.25-.15-.57-.37-.75-.1-.08-.25-.08-.37-.12-.04.62.02,1.27-.12,1.88-.03.15-.23.29-.37.25-.13-.03-.04-.27-.12-.38-.09-.12-.25-.17-.37-.25-.58-.87-.33-1-.74-.37-.04.62.02,1.27-.12,1.88-.03.15-.28.13-.37.25-.08.1-.08.25-.12.37.02.11.2,1.44.37,1.5l.74.25c1.42-.09,1.77.42,2.23-.5.06-.12.08-.25.12-.37-.04.34-.06.99-.25,1.37-.07.13-.17.25-.25.37-.04.17-.07.34-.12.5-.07.25-.25.75-.25.75.04.37-.1.82.12,1.12.13.17.44,0,.62-.13.11-.07.09-.25.12-.37.05-.17.07-.34.12-.5.23-.77.19-.62.5-1.25.04-.33.06-.67.12-1,.02-.13,0-.38.12-.38.15,0,.17.25.25.38.04,1-.03,2.01.12,3,.02.13.24.12.37.12s.25-.08.37-.12c.04-.13.11-.24.12-.37.07-1-.18-2.05.12-3,.08-.25.74.25.74.25.35-.03,1.26,0,1.73-.25.13-.07.25-.17.37-.25.08.13.23.23.25.38.11.91-.2,1.89.12,2.75.1.28.58-.08.87-.12.04-.38.09-.75.12-1.13.05-.58-.04-1.19.12-1.75.08-.28.06.59.12.87.06.26.17.5.25.75.04.12.05.27.12.37l.5.75c.12-.04.28-.03.37-.12.09-.09.12-.24.12-.38,0-.11-.22-1.7-.25-1.88-.07-.42-.25-1.25-.25-1.25.04-.13.07-.26.12-.38.1-.2.53-.74.62-.87.09-.12.17-.24.25-.37.22-.39.22-.54.5-.88.11-.14.27-.23.37-.37.31-.43.37-1.01.5-1.5.18-.72.06-.34.37-1.12-.08-.21-.11-.45-.25-.62-.22-.27-.99-.02-1.11,0-.08.12-.19.24-.25.37-.11.24-.1.53-.25.75-.08.13-.19.24-.25.38-.11.24-.16.5-.25.75-.04.13-.07.26-.12.38-.08.17-.16.34-.25.5-.07.13-.19.24-.25.37-.32.73-.01.69-.62,1-.12.06-.25.08-.37.12-.21-.04-.41-.09-.62-.12-.29-.05-.58-.06-.87-.13-.29-.06-1.12-.36-1.49-.37-1.03-.03-2.35.29-2.97.12Z"/>
  <path class="st6" d="M4.34,55.73c-.62-.17-.6-.7-.74-1.12-.08-.25-.15-.57-.37-.75-.1-.08-.25-.08-.37-.12-.04.62.02,1.27-.12,1.88-.03.15-.23.29-.37.25-.13-.03-.04-.27-.12-.38-.09-.12-.25-.17-.37-.25-.58-.87-.33-1-.74-.37-.04.62.02,1.27-.12,1.88-.03.15-.28.13-.37.25-.08.1-.08.25-.12.37.02.11.2,1.44.37,1.5l.74.25c1.42-.09,1.77.42,2.23-.5.06-.12.08-.25.12-.37-.04.34-.06.99-.25,1.37-.07.13-.17.25-.25.37-.04.17-.07.34-.12.5-.07.25-.25.75-.25.75.04.37-.1.82.12,1.12.13.17.44,0,.62-.13.11-.07.09-.25.12-.37.05-.17.07-.34.12-.5.23-.77.19-.62.5-1.25.04-.33.06-.67.12-1,.02-.13,0-.38.12-.38.15,0,.17.25.25.38.04,1-.03,2.01.12,3,.02.13.24.12.37.12s.25-.08.37-.12c.04-.13.11-.24.12-.37.07-1-.18-2.05.12-3,.08-.25.74.25.74.25.35-.03,1.26,0,1.73-.25.13-.07.25-.17.37-.25.08.13.23.23.25.38.11.91-.2,1.89.12,2.75.1.28.58-.08.87-.12.04-.38.09-.75.12-1.13.05-.58-.04-1.19.12-1.75.08-.28.06.59.12.87.06.26.17.5.25.75.04.12.05.27.12.37l.5.75c.12-.04.28-.03.37-.12.09-.09.12-.24.12-.38,0-.11-.22-1.7-.25-1.88-.07-.42-.25-1.25-.25-1.25.04-.13.07-.26.12-.38.1-.2.53-.74.62-.87.09-.12.17-.24.25-.37.22-.39.22-.54.5-.88.11-.14.27-.23.37-.37.31-.43.37-1.01.5-1.5.18-.72.06-.34.37-1.12-.08-.21-.11-.45-.25-.62-.22-.27-.99-.02-1.11,0-.08.12-.19.24-.25.37-.11.24-.1.53-.25.75-.08.13-.19.24-.25.38-.11.24-.16.5-.25.75-.04.13-.07.26-.12.38-.08.17-.16.34-.25.5-.07.13-.19.24-.25.37-.32.73-.01.69-.62,1-.12.06-.25.08-.37.12-.21-.04-.41-.09-.62-.12-.29-.05-.58-.06-.87-.13-.29-.06-1.12-.36-1.49-.37-1.03-.03-2.35.29-2.97.12Z"/>
  <path class="st8" d="M10.38,39.53c-.3-.06.08.14-1.44-.54-.35-.16-1.08-.36-1.08-.36-.06-.18-.09-.37-.18-.54-.1-.19-.27-.34-.36-.54-.15-.35-.24-.73-.36-1.09l-.18-.54c-.12.12-.28.21-.36.36-.17.34-.24.73-.36,1.09l-.36,1.09c-.06.18,0,.53-.18.54l-1.97.18c-.18.06-.37.09-.54.18-.38.21-1.08.73-1.08.73l-.72,1.09-.36.54c.06.36.05.74.18,1.09.07.2.77.67.9.73.35.16,1.08.36,1.08.36.72-.06,1.44-.09,2.15-.18.57-.07,1.27-.41,1.79-.54,1.08-.27.48-.1,1.79-.54l.54-.18c.05-.08.52-.87.72-.91.19-.04.36.12.54.18.12.18.26.35.36.54.08.17.08.38.18.54.09.15.25.23.36.36.13.17.24.36.36.54.43-1.31,0,.25,0-2.36,0-.19.09-.37.18-.54.16-.31.44-.68.72-.91.17-.14.36-.24.54-.36.06-.24.08-.5.18-.73.09-.2.54-.42.36-.54-.25-.17-.6.1-.9.18-2.04.56-.33.08-1.61.73-.17.09-.36.11-.54.18-.12.05-.06.24-.36.18Z"/>
  <path class="st7" d="M10.38,39.53c-.3-.06.08.14-1.44-.54-.35-.16-1.08-.36-1.08-.36-.06-.18-.09-.37-.18-.54-.1-.19-.27-.34-.36-.54-.15-.35-.24-.73-.36-1.09l-.18-.54c-.12.12-.28.21-.36.36-.17.34-.24.73-.36,1.09l-.36,1.09c-.06.18,0,.53-.18.54l-1.97.18c-.18.06-.37.09-.54.18-.38.21-1.08.73-1.08.73l-.72,1.09-.36.54c.06.36.05.74.18,1.09.07.2.77.67.9.73.35.16,1.08.36,1.08.36.72-.06,1.44-.09,2.15-.18.57-.07,1.27-.41,1.79-.54,1.08-.27.48-.1,1.79-.54l.54-.18c.05-.08.52-.87.72-.91.19-.04.36.12.54.18.12.18.26.35.36.54.08.17.08.38.18.54.09.15.25.23.36.36.13.17.24.36.36.54.43-1.31,0,.25,0-2.36,0-.19.09-.37.18-.54.16-.31.44-.68.72-.91.17-.14.36-.24.54-.36.06-.24.08-.5.18-.73.09-.2.54-.42.36-.54-.25-.17-.6.1-.9.18-2.04.56-.33.08-1.61.73-.17.09-.36.11-.54.18-.12.05-.06.24-.36.18Z"/>
  <path class="st9" d="M9.88,74.3c-.1-.03-.32-.5-.45-.76-.37-.75.12-.19-.45-.92-.25-.31-.42-.38-.76-.61-.32-1.29.12.02-.6-1.07-.09-.13-.08-.31-.15-.46-.08-.16-.2-.31-.3-.46-1.14,1.73.67-1.19-.45,4.27-.04.21-.4-.1-.6-.15-.79-.53-.1-.15-1.21-.46-.31-.08-.6-.2-.91-.31-.15-.05-.3-.11-.45-.15l-.6-.15c-.3.05-.72-.09-.91.15-.13.17.31.29.45.46.16.19.31.4.45.61.11.15.17.33.3.46.13.13.31.19.45.31.11.09.19.22.3.31.14.11.29.23.45.31.29.13.91.31.91.31.1.15.3.27.3.46,0,.34-.55.63-.76.76-.29.88.06.06-.6.92-.22.29-.6.92-.6.92-.05.15-.22.31-.15.46.17.34,1.15.01,1.21,0,.87-.88.42-.65,1.21-.92.81-1.22-.25.25.76-.76.68-.69-.13-.31.76-.61.25.05.53.02.76.15.16.09.19.32.3.46.14.17.27.35.45.46.28.16.6.2.91.31.15.05.32.06.45.15l.45.31c.05-.15.2-.31.15-.46-.11-.35-.4-.61-.6-.92-.1-.15-.24-.28-.3-.46-.05-.15-.05-.33-.15-.46-.11-.14-.3-.2-.45-.31-.05-.15-.22-.31-.15-.46.07-.14.3-.11.45-.15,1.33-.38-.03.06,1.06-.31.1-.1.19-.22.3-.31.29-.22.65-.35.91-.61.58-.59.33-.28.76-.92-.75-.75-.25-.41-2.27-.15-.16.02-.3.11-.45.15-.2.06-.05.64-.15.61Z"/>
  <path class="st5" d="M9.88,74.3c-.1-.03-.32-.5-.45-.76-.37-.75.12-.19-.45-.92-.25-.31-.42-.38-.76-.61-.32-1.29.12.02-.6-1.07-.09-.13-.08-.31-.15-.46-.08-.16-.2-.31-.3-.46-1.14,1.73.67-1.19-.45,4.27-.04.21-.4-.1-.6-.15-.79-.53-.1-.15-1.21-.46-.31-.08-.6-.2-.91-.31-.15-.05-.3-.11-.45-.15l-.6-.15c-.3.05-.72-.09-.91.15-.13.17.31.29.45.46.16.19.31.4.45.61.11.15.17.33.3.46.13.13.31.19.45.31.11.09.19.22.3.31.14.11.29.23.45.31.29.13.91.31.91.31.1.15.3.27.3.46,0,.34-.55.63-.76.76-.29.88.06.06-.6.92-.22.29-.6.92-.6.92-.05.15-.22.31-.15.46.17.34,1.15.01,1.21,0,.87-.88.42-.65,1.21-.92.81-1.22-.25.25.76-.76.68-.69-.13-.31.76-.61.25.05.53.02.76.15.16.09.19.32.3.46.14.17.27.35.45.46.28.16.6.2.91.31.15.05.32.06.45.15l.45.31c.05-.15.2-.31.15-.46-.11-.35-.4-.61-.6-.92-.1-.15-.24-.28-.3-.46-.05-.15-.05-.33-.15-.46-.11-.14-.3-.2-.45-.31-.05-.15-.22-.31-.15-.46.07-.14.3-.11.45-.15,1.33-.38-.03.06,1.06-.31.1-.1.19-.22.3-.31.29-.22.65-.35.91-.61.58-.59.33-.28.76-.92-.75-.75-.25-.41-2.27-.15-.16.02-.3.11-.45.15-.2.06-.05.64-.15.61Z"/>
  <path class="st13" d="M5.16,92.48c.1-.93-1.65-1.97-.99-2.64"/>
  <path class="st0" d="M5.16,92.48c.1-.93-1.65-1.97-.99-2.64"/>
  <path class="st13" d="M8.22,91.39c.09-.77-.43-1.79-1.17-2"/>
  <path class="st0" d="M8.22,91.39c.09-.77-.43-1.79-1.17-2"/>
  <path class="st13" d="M5.07,93.58c-.91-.11-1.71.74-2.61.91"/>
  <path class="st0" d="M5.07,93.58c-.91-.11-1.71.74-2.61.91"/>
  <path class="st13" d="M6.51,93.76c.76-.09.88,1.33.99,2.09"/>
  <path class="st0" d="M6.51,93.76c.76-.09.88,1.33.99,2.09"/>
  <path class="st13" d="M9.75,92.85c.59.4.91,1.29.81,2"/>
  <path class="st0" d="M9.75,92.85c.59.4.91,1.29.81,2"/>
  <path class="st13" d="M11.47,91.39c.85,0,1.48-1.09,1.71-1.91"/>
  <path class="st0" d="M11.47,91.39c.85,0,1.48-1.09,1.71-1.91"/>
  <path class="st13" d="M11.47,92.76c.78-.11,1.82.85,1.71,1.64"/>
  <path class="st0" d="M11.47,92.76c.78-.11,1.82.85,1.71,1.64"/>
  <path class="st13" d="M9.93,90.67c-.26-.8.13-1.73.54-2.46"/>
  <path class="st0" d="M9.93,90.67c-.26-.8.13-1.73.54-2.46"/>
  <path class="st13" d="M5.97,93.94c-.56.38-.05,1.81-.72,1.91"/>
  <path class="st0" d="M5.97,93.94c-.56.38-.05,1.81-.72,1.91"/>
  <path class="st12" d="M5.12,91.5l5.45-1.47c.71-.19,1.49.38,1.72,1.28s-.15,1.78-.86,1.97l-5.45,1.47c-.71.19-1.49-.38-1.72-1.28s.15-1.78.86-1.97Z"/>
  <path class="st0" d="M5.12,91.5l5.45-1.47c.71-.19,1.49.38,1.72,1.28s-.15,1.78-.86,1.97l-5.45,1.47c-.71.19-1.49-.38-1.72-1.28s.15-1.78.86-1.97Z"/>
  <rect class="st17" x="44.39" y="19.29" width="9.34" height="9.42"/>
  <rect class="st4" x="44.39" y="19.29" width="9.34" height="9.42"/>
  <rect class="st17" x="44.39" y="36.01" width="9.34" height="9.42"/>
  <rect class="st4" x="44.39" y="36.01" width="9.34" height="9.42"/>
  <rect class="st15" x="44.39" y="52.74" width="9.34" height="9.42"/>
  <rect class="st4" x="44.39" y="52.74" width="9.34" height="9.42"/>
  <rect class="st15" x="44.39" y="69.46" width="9.34" height="9.42"/>
  <rect class="st4" x="44.39" y="69.46" width="9.34" height="9.42"/>
  <rect class="st16" x="44.39" y="86.19" width="9.34" height="9.42"/>
  <rect class="st4" x="44.39" y="86.19" width="9.34" height="9.42"/>
  <rect class="st14" x="25.71" y="19.29" width="9.34" height="9.42"/>
  <rect class="st4" x="25.71" y="19.29" width="9.34" height="9.42"/>
  <rect class="st14" x="25.71" y="36.01" width="9.34" height="9.42"/>
  <rect class="st4" x="25.71" y="36.01" width="9.34" height="9.42"/>
  <rect class="st17" x="25.71" y="52.74" width="9.34" height="9.42"/>
  <rect class="st4" x="25.71" y="52.74" width="9.34" height="9.42"/>
  <rect class="st17" x="25.71" y="69.46" width="9.34" height="9.42"/>
  <rect class="st4" x="25.71" y="69.46" width="9.34" height="9.42"/>
  <rect class="st14" x="25.71" y="86.19" width="9.34" height="9.42"/>
  <rect class="st4" x="25.71" y="86.19" width="9.34" height="9.42"/>
</svg>