<?xml version="1.0" encoding="UTF-8"?>
<svg id="Layer_1" xmlns="http://www.w3.org/2000/svg" version="1.1" viewBox="0 0 247.95 245.62">
  <!-- Generator: Adobe Illustrator 30.6.0, SVG Export Plug-In . SVG Version: 2.1.4 Build 109)  -->
  <defs>
    <style>
      .st0 {
        fill: #f3cccc;
      }

      .st0, .st1, .st2, .st3 {
        fill-rule: evenodd;
      }

      .st1 {
        fill: #d9d9d8;
      }

      .st4 {
        stroke: #e06666;
      }

      .st4, .st5, .st6, .st7 {
        fill: none;
        stroke-linejoin: round;
        stroke-width: 3px;
      }

      .st5 {
        stroke: #4a75ba;
      }

      .st6 {
        stroke: #6ba94e;
      }

      .st7 {
        stroke: #989898;
      }

      .st2 {
        fill: #cbdaf0;
      }

      .st3 {
        fill: #d9e9d3;
      }
    </style>
  </defs>
  <path class="st1" d="M30.77,122.81c0,50.83,41.21,92.04,92.04,92.04s92.04-41.21,92.04-92.04S173.64,30.77,122.81,30.77,30.77,71.98,30.77,122.81ZM1.5,122.81C1.5,55.81,55.81,1.5,122.81,1.5c32.17,0,63.03,12.78,85.78,35.53,22.75,22.75,35.53,53.61,35.53,85.78,0,67-54.31,121.31-121.31,121.31S1.5,189.81,1.5,122.81Z"/>
  <path class="st7" d="M30.77,122.81c0,50.83,41.21,92.04,92.04,92.04s92.04-41.21,92.04-92.04S173.64,30.77,122.81,30.77,30.77,71.98,30.77,122.81ZM1.5,122.81C1.5,55.81,55.81,1.5,122.81,1.5c32.17,0,63.03,12.78,85.78,35.53,22.75,22.75,35.53,53.61,35.53,85.78,0,67-54.31,121.31-121.31,121.31S1.5,189.81,1.5,122.81Z"/>
  <path class="st3" d="M246.45,132.38c-.47,6.06-1.39,12.08-2.74,18.01l-34.1-7.79c.97-4.26,1.63-8.58,1.97-12.93l34.88,2.71Z"/>
  <path class="st6" d="M246.45,132.38c-.47,6.06-1.39,12.08-2.74,18.01l-34.1-7.79c.97-4.26,1.63-8.58,1.97-12.93l34.88,2.71Z"/>
  <path class="st0" d="M241.41,159.01c-2.34,7.66-5.41,15.07-9.18,22.13l-31.21-16.65c2.69-5.05,4.89-10.35,6.56-15.82l33.83,10.34Z"/>
  <path class="st4" d="M241.41,159.01c-2.34,7.66-5.41,15.07-9.18,22.13l-31.21-16.65c2.69-5.05,4.89-10.35,6.56-15.82l33.83,10.34Z"/>
  <path class="st2" d="M226.94,190.14c-6.39,9.88-14.16,18.81-23.07,26.51l-23.9-27.66c6.28-5.43,11.76-11.72,16.27-18.7l30.69,19.85Z"/>
  <path class="st5" d="M226.94,190.14c-6.39,9.88-14.16,18.81-23.07,26.51l-23.9-27.66c6.28-5.43,11.76-11.72,16.27-18.7l30.69,19.85Z"/>
</svg>